<svg xmlns="http://www.w3.org/2000/svg" width="528" height="528" viewBox="0 0 528 528" version="1.1"><path d="M 93.455 21.455 C 89.271 25.638, 90.190 29.648, 97.201 37.810 C 100.433 41.573, 100.221 42.573, 95.990 43.502 C 91.107 44.575, 88.606 50.205, 90.648 55.526 C 91.005 56.455, 94.642 59.350, 98.732 61.959 L 106.166 66.702 100.833 67.342 C 97.900 67.694, 93.392 67.987, 90.815 67.991 C 82.197 68.007, 77.981 70.920, 78.032 76.821 C 78.049 78.845, 78.664 81.291, 79.398 82.258 C 80.132 83.225, 90.996 88.497, 103.540 93.974 C 116.084 99.450, 127.956 105.232, 129.924 106.822 C 138.131 113.455, 139.090 120.384, 134.445 139.500 C 130.994 153.703, 130.204 167.345, 132.349 175.716 C 133.225 179.135, 136.409 186.723, 139.426 192.580 C 142.443 198.437, 145.195 205.118, 145.541 207.427 C 145.888 209.736, 145.501 217.114, 144.682 223.824 C 142.935 238.133, 143.887 245.344, 148.379 251.825 C 149.890 254.005, 157.960 262.521, 166.313 270.749 C 174.666 278.978, 184.245 288.700, 187.601 292.355 C 194.420 299.783, 196.626 300.465, 200.689 296.402 C 203.262 293.829, 203.281 293.693, 202.676 282.652 C 201.710 265.026, 197.097 246.464, 189.887 231.193 C 187.598 226.347, 186.284 222.363, 186.732 221.630 C 187.154 220.939, 190.232 217.885, 193.570 214.844 L 199.640 209.315 215.070 209.768 C 230.197 210.212, 250.156 208.776, 273 205.600 C 283.628 204.122, 283.579 204.101, 284.573 210.672 C 285.293 215.437, 283.547 218.502, 273.608 229.913 C 264.353 240.538, 261.938 251.198, 265.581 265.356 C 267.558 273.043, 270.143 276, 274.883 276 C 278.093 276, 279.622 274.782, 291.512 262.750 C 298.713 255.463, 308.833 245, 314 239.500 C 319.167 234, 322.635 230.715, 321.707 232.201 C 315.723 241.773, 310.017 262.547, 310.007 274.795 C 310.001 282.275, 310.242 283.332, 312.455 285.545 C 316.897 289.988, 320.113 288.741, 331 278.355 L 335.500 274.062 335.171 286.427 C 334.779 301.146, 335.878 304.511, 341.416 305.550 C 343.291 305.902, 345.670 305.922, 346.702 305.595 C 348.405 305.054, 376.275 273.955, 378.398 270.226 C 378.961 269.237, 378.477 262.660, 377.098 252.575 C 373.768 228.218, 373.245 225.815, 367.296 207.500 C 361.267 188.942, 356.149 176.885, 352.709 173.133 C 349.955 170.129, 338.661 164.869, 329.244 162.204 C 325.320 161.094, 320.557 159.001, 318.659 157.554 C 312.791 153.078, 299.602 149.474, 281.924 147.517 L 276.349 146.900 238.235 106.700 L 200.122 66.500 151.264 42.750 C 118.145 26.651, 101.360 19, 99.158 19 C 97.042 19, 95.053 19.856, 93.455 21.455 M 139.234 444.582 L 132.968 448.134 133.234 475.255 L 133.500 502.376 139 505.684 C 144.491 508.986, 144.523 508.992, 157.821 508.996 C 170.972 509, 171.217 508.959, 177.059 505.750 L 182.976 502.500 182.988 495.250 L 183 488 176 488 L 169 488 169 492.500 L 169 497 158.500 497 L 148 497 148 475 L 148 453 158.500 453 L 169 453 169 457.500 L 169 462 176.044 462 L 183.088 462 182.794 454.817 L 182.500 447.633 177 444.355 C 171.548 441.107, 171.385 441.078, 158.500 441.054 L 145.500 441.031 139.234 444.582 M 412.764 444.289 L 407.027 447.500 407.014 475.039 L 407 502.579 412.590 505.789 C 418.116 508.963, 418.332 509, 431.510 509 C 444.742 509, 444.881 508.976, 450.401 505.750 L 455.961 502.500 455.980 495.250 L 456 488 449 488 L 442 488 442 492.500 L 442 497 431.500 497 L 421 497 421 475 L 421 453 431.500 453 L 442 453 442 457.500 L 442 462 449 462 L 456 462 456 454.731 L 456 447.462 450.123 444.231 C 444.343 441.053, 444.035 441.001, 431.373 441.039 C 418.772 441.077, 418.379 441.146, 412.764 444.289 M 8 475 L 8 508 15 508 L 22 508 22 496.500 L 22 485 32.119 485 C 41.959 485, 42.401 484.901, 48.119 481.428 L 54 477.855 54 463.001 L 54 448.147 48.628 445.073 L 43.257 442 25.628 442 L 8 442 8 475 M 66.235 472.188 L 66.500 502.376 72 505.684 L 77.500 508.992 92.344 508.996 L 107.187 509 112.594 505.766 L 118 502.533 118 472.266 L 118 442 111 442 L 104 442 104 469 L 104 496 92 496 L 80 496 80 469 L 80 442 72.985 442 L 65.971 442 66.235 472.188 M 197 475 L 197 508 204 508 L 211 508 211 499.077 C 211 490.936, 211.227 489.884, 213.589 487.077 C 215.013 485.385, 216.540 484, 216.984 484 C 217.427 484, 222.196 489.400, 227.583 496 L 237.376 508 245.810 508 C 252.432 508, 254.027 507.731, 253.232 506.750 C 252.674 506.063, 246.319 498.355, 239.109 489.623 C 231.899 480.891, 226 473.449, 226 473.085 C 226 472.722, 231.625 465.753, 238.500 457.599 C 245.375 449.445, 251 442.600, 251 442.387 C 251 442.174, 247.287 442.020, 242.750 442.045 L 234.500 442.089 223 456.153 L 211.500 470.216 211.223 456.108 L 210.945 442 203.973 442 L 197 442 197 475 M 256 448 L 256 454 265 454 L 274 454 274 481 L 274 508 281 508 L 288 508 288 481 L 288 454 297 454 L 306 454 306 448 L 306 442 281 442 L 256 442 256 448 M 315 475 L 315 508 322 508 L 329 508 329 495.943 L 329 483.885 333.148 484.193 L 337.295 484.500 343.898 496.222 L 350.500 507.944 358.332 507.972 L 366.163 508 364.214 504.750 C 361.537 500.286, 354.521 487.978, 353.139 485.322 C 352.100 483.323, 352.459 482.884, 357.503 479.998 L 363 476.853 363 462.660 L 363 448.467 357.594 445.234 L 352.187 442 333.594 442 L 315 442 315 475 M 378 475 L 378 508 385 508 L 392 508 392 475 L 392 442 385 442 L 378 442 378 475 M 470 475 L 470 508 477 508 L 484 508 484.038 499.250 C 484.074 490.861, 484.208 490.347, 487.288 486.785 L 490.500 483.070 500.500 495.493 L 510.500 507.917 518.809 507.958 C 525.204 507.990, 526.942 507.712, 526.355 506.750 C 525.936 506.063, 519.576 498.196, 512.224 489.270 L 498.855 473.040 511.427 458.125 C 518.342 449.922, 524 442.938, 524 442.605 C 524 442.272, 520.430 442, 516.067 442 L 508.135 442 496.067 456.623 L 484 471.247 484 456.623 L 484 442 477 442 L 470 442 470 475 M 22 463 L 22 472 31 472 L 40 472 40 463 L 40 454 31 454 L 22 454 22 463 M 329 462.500 L 329 471 339 471 L 349 471 349 462.500 L 349 454 339 454 L 329 454 329 462.500" stroke="none" fill="#2a5881" fill-rule="evenodd"/><path d="M 410.500 63.591 C 379.092 79.976, 332.785 100.846, 295 115.645 C 283.175 120.276, 272.150 124.697, 270.500 125.469 C 267.899 126.686, 279.292 126.881, 356.250 126.936 L 445 127 444.994 107.250 C 444.988 85.937, 444.509 82.861, 439.674 73.081 C 436.575 66.815, 427.382 55.857, 425.463 56.144 C 424.933 56.223, 418.200 59.574, 410.500 63.591 M 281 147.161 C 300.395 150.329, 309.020 152.353, 314.246 154.965 L 320 157.840 320 151.920 L 320 146 297.750 146.131 C 280.818 146.231, 276.814 146.477, 281 147.161 M 339 155.864 L 339 165.728 343.539 167.462 C 353.504 171.267, 356.472 175.900, 365.029 201 L 370.655 217.500 407.827 217.762 L 445 218.024 445 182.012 L 445 146 392 146 L 339 146 339 155.864 M 112 171.075 C 102.375 173.185, 91.912 175.413, 88.750 176.026 L 83 177.142 83 197.585 L 83 218.028 114.250 217.764 L 145.500 217.500 145.430 210.928 C 145.366 204.939, 144.809 203.253, 139.152 191.928 C 135.269 184.153, 132.514 177.160, 131.796 173.250 C 131.164 169.813, 130.389 167.054, 130.073 167.120 C 129.758 167.186, 121.625 168.965, 112 171.075 M 272.500 205.575 C 255.617 208.056, 232.664 210, 220.262 210 L 207.879 210 208.190 213.750 L 208.500 217.500 245.383 217.762 C 284.080 218.038, 285.006 217.941, 284.994 213.628 C 284.986 210.602, 283.040 203.976, 282.203 204.126 C 281.816 204.196, 277.450 204.848, 272.500 205.575 M 83 271.985 L 83 308 136 308 L 189 308 189 300.643 L 189 293.287 169.967 274.393 C 159.498 264.002, 149.734 253.772, 148.268 251.659 C 146.801 249.546, 145.094 245.271, 144.472 242.159 L 143.343 236.500 113.171 236.235 L 83 235.971 83 271.985 M 208.667 236.667 C 208.300 237.033, 208 253.233, 208 272.667 L 208 308 264 308 L 320 308 320 298 L 320 288 317.455 288 C 316.055 288, 313.805 286.895, 312.455 285.545 C 310.242 283.332, 310.001 282.275, 310.007 274.795 C 310.015 265.616, 312.535 253.566, 316.475 243.870 C 320.653 233.586, 319.652 233.386, 310.868 242.750 C 307.385 246.463, 298.659 255.463, 291.477 262.750 C 279.613 274.788, 278.095 276, 274.883 276 C 270.143 276, 267.558 273.043, 265.581 265.356 C 263.409 256.914, 263.564 248.168, 265.999 241.761 C 267.099 238.867, 267.999 236.387, 267.999 236.250 C 268.001 235.654, 209.267 236.066, 208.667 236.667 M 375 237.729 C 375 238.680, 375.963 245.893, 377.140 253.758 C 378.510 262.915, 378.960 268.739, 378.390 269.953 C 376.559 273.854, 348.422 305.107, 346.250 305.652 C 345.013 305.963, 342.875 305.934, 341.500 305.589 C 339.655 305.126, 339 305.360, 339 306.481 C 339 307.821, 345.260 308, 392 308 L 445 308 445 272 L 445 236 410 236 C 377.496 236, 375 236.123, 375 237.729 M 83 343.500 L 83 360 103.750 360.010 C 129.275 360.022, 169.809 362.807, 185.750 365.644 L 189 366.223 189 346.611 L 189 327 136 327 L 83 327 83 343.500 M 208 347.886 L 208 368.773 212.750 369.471 C 237.753 373.148, 277.438 382.644, 318.250 394.716 C 319.893 395.201, 320 393.139, 320 361.117 L 320 327 264 327 L 208 327 208 347.886 M 339.002 364.250 L 339.004 401.500 348.252 404.756 L 357.500 408.011 380.500 408 C 393.650 407.994, 405.213 407.530, 407.500 406.918 C 424.596 402.342, 439.342 387.596, 443.918 370.500 C 444.507 368.300, 444.991 357.613, 444.994 346.750 L 445 327 392 327 L 339 327 339.002 364.250" stroke="none" fill="#fbd344" fill-rule="evenodd"/></svg>